<svg width="154" height="68" viewBox="0 0 154 68" fill="none" xmlns="http://www.w3.org/2000/svg">
<g clip-path="url(#clip0_41_220)">
<path d="M125.215 48.6875C120.423 48.6875 118.027 49.8789 118.027 52.2617C118.027 52.8997 118.223 53.4922 118.613 54.0391C119.017 54.5859 119.473 54.8594 119.98 54.8594H120.742C123.607 54.8594 125.137 53.3555 125.332 50.3477V48.6875H125.215ZM116.23 39.4883C118.574 38.668 120.495 38.2578 121.992 38.2578C123.49 38.2578 124.798 38.6289 125.918 39.3711C127.038 40.1133 127.786 41.2135 128.164 42.6719C128.372 43.4922 128.477 45.1654 128.477 47.6914V53.8047C128.477 54.9505 128.568 55.9922 128.75 56.9297H125.586C125.417 56.3958 125.332 55.7904 125.332 55.1133V54.9766C125.007 55.3672 124.648 55.7057 124.258 55.9922C123.034 56.8906 121.732 57.3398 120.352 57.3398C118.034 57.3398 116.439 56.513 115.566 54.8594C115.111 54.0391 114.883 53.1992 114.883 52.3398C114.883 50.0612 116.217 48.4141 118.887 47.3984C120.488 46.7865 122.52 46.4805 124.98 46.4805H125.332V44.5078C125.332 43.0755 125.059 42.099 124.512 41.5781C123.874 40.9792 122.812 40.6797 121.328 40.6797C119.844 40.6797 118.197 41.0964 116.387 41.9297L116.23 39.4883Z" fill="#303F4A"/>
<path d="M109.955 56.2238C108.82 58.7413 106.972 60 104.412 60C103.378 60 102.445 59.7615 101.613 59.2845C100.793 58.7943 100.144 58.2709 99.6646 57.7144C99.198 57.158 98.8071 56.4027 98.4918 55.4487C98.1639 54.4948 98 53.4083 98 52.1893V41H101.045V51.0764C101.045 55.3295 102.496 57.4561 105.396 57.4561C106.14 57.4561 106.821 57.2441 107.439 56.8201C108.385 56.1841 109.129 55.1374 109.671 53.6799C109.86 53.1764 109.955 52.7789 109.955 52.4874V41H113V59.6423H109.955V56.2238Z" fill="#303F4A"/>
<path d="M87.3203 41.5195C85.263 41.5195 83.9479 42.4766 83.375 44.3906C83.2188 44.8854 83.1406 45.3932 83.1406 45.9141C83.1406 46.9948 83.4727 47.8802 84.1367 48.5703C84.8008 49.2474 85.862 49.5859 87.3203 49.5859C89.3776 49.5859 90.6927 48.7005 91.2656 46.9297C91.4219 46.474 91.5 46.0182 91.5 45.5625C91.5 44.612 91.194 43.7266 90.582 42.9062C89.8659 41.9818 88.7786 41.5195 87.3203 41.5195ZM93.4336 41.8516C94.2409 42.9974 94.6445 44.2279 94.6445 45.543C94.6445 47.6784 93.8503 49.3776 92.2617 50.6406C91.0508 51.6172 89.4036 52.1055 87.3203 52.1055C86.2005 52.1055 85.1979 51.9883 84.3125 51.7539C83.5443 52.3398 83.1602 53.0039 83.1602 53.7461C83.1602 54.7747 84.8333 55.2891 88.1797 55.2891C92.0339 55.2891 94.4883 56.2201 95.543 58.082C95.8685 58.6549 96.0312 59.306 96.0312 60.0352C96.0312 61.6367 95.582 62.9909 94.6836 64.0977C92.9648 66.2201 90.0677 67.2812 85.9922 67.2812C83.9219 67.2812 82.2357 66.8646 80.9336 66.0312C79.6445 65.1979 79 63.9805 79 62.3789C79 60.7513 79.6641 59.3971 80.9922 58.3164C81.3828 58.0039 81.8646 57.6719 82.4375 57.3203C80.8229 56.7734 80.0156 55.7839 80.0156 54.3516C80.0156 53.8177 80.1979 53.2188 80.5625 52.5547C80.9271 51.8906 81.4805 51.2982 82.2227 50.7773C80.7773 49.7357 80.0352 48.1406 79.9961 45.9922V45.875C79.9961 44.1953 80.5234 42.6784 81.5781 41.3242C82.125 40.6211 82.8932 40.0612 83.8828 39.6445C84.8724 39.2148 85.9206 39 87.0273 39C88.1471 39 89.1042 39.1172 89.8984 39.3516H96.0312V41.8516H93.4336ZM85.4453 57.7891C84.1823 58.4922 83.3359 59.1367 82.9062 59.7227C82.3984 60.3997 82.1445 61.1159 82.1445 61.8711C82.1445 62.6263 82.3724 63.2188 82.8281 63.6484C83.6094 64.3906 84.8594 64.7617 86.5781 64.7617C88.9479 64.7617 90.7318 64.1758 91.9297 63.0039C92.5677 62.3789 92.8867 61.6172 92.8867 60.7188C92.8867 59.7943 92.5221 59.1237 91.793 58.707C91.0117 58.2904 90.2565 58.043 89.5273 57.9648C88.5378 57.8607 87.6784 57.8086 86.9492 57.8086C86.2331 57.8086 85.7318 57.8021 85.4453 57.7891Z" fill="#303F4A"/>
<path d="M73.9546 46.9236C73.9546 42.6705 72.5044 40.5439 69.604 40.5439C68.86 40.5439 68.1791 40.7559 67.5612 41.1799C66.6154 41.8159 65.8714 42.8626 65.3291 44.3201C65.14 44.8236 65.0454 45.2211 65.0454 45.5126V57H62V38.3577H65.0454V41.7762C66.1803 39.2587 68.0277 38 70.5876 38C71.6217 38 72.5486 38.2451 73.3682 38.7354C74.2005 39.2123 74.8499 39.7291 75.3165 40.2856C76.4388 41.5973 77 43.439 77 45.8107V57H73.9546V46.9236Z" fill="#303F4A"/>
<path d="M59.1868 40.3217V60H55.6484V43.007H52V40.3217H59.1868ZM54.8132 32.5385C54.8132 31.8392 55.0623 31.2448 55.5604 30.7552C56.0733 30.2517 56.6886 30 57.4066 30C58.1245 30 58.7326 30.2517 59.2308 30.7552C59.7436 31.2448 60 31.8392 60 32.5385C60 33.2378 59.7436 33.8392 59.2308 34.3427C58.7326 34.8322 58.1245 35.0769 57.4066 35.0769C56.6886 35.0769 56.0733 34.8322 55.5604 34.3427C55.0623 33.8392 54.8132 33.2378 54.8132 32.5385Z" fill="#303F4A"/>
<path d="M35.8401 40H50.6945L40.2124 57.2708H51V60H35L45.4821 42.7292H35.8401V40Z" fill="#303F4A"/>
<path d="M30.332 48.4297C25.5404 48.4297 23.1445 49.6211 23.1445 52.0039C23.1445 52.6419 23.3398 53.2344 23.7305 53.7812C24.1341 54.3281 24.5898 54.6016 25.0977 54.6016H25.8594C28.724 54.6016 30.2539 53.0977 30.4492 50.0898V48.4297H30.332ZM21.3477 39.2305C23.6914 38.4102 25.612 38 27.1094 38C28.6068 38 29.9154 38.3711 31.0352 39.1133C32.1549 39.8555 32.9036 40.9557 33.2812 42.4141C33.4896 43.2344 33.5938 44.9076 33.5938 47.4336V53.5469C33.5938 54.6927 33.6849 55.7344 33.8672 56.6719H30.7031C30.5339 56.138 30.4492 55.5326 30.4492 54.8555V54.7188C30.1237 55.1094 29.7656 55.4479 29.375 55.7344C28.151 56.6328 26.849 57.082 25.4688 57.082C23.151 57.082 21.556 56.2552 20.6836 54.6016C20.2279 53.7812 20 52.9414 20 52.082C20 49.8034 21.3346 48.1562 24.0039 47.1406C25.6055 46.5286 27.6367 46.2227 30.0977 46.2227H30.4492V44.25C30.4492 42.8177 30.1758 41.8411 29.6289 41.3203C28.9909 40.7214 27.9297 40.4219 26.4453 40.4219C24.9609 40.4219 23.3138 40.8385 21.5039 41.6719L21.3477 39.2305Z" fill="#303F4A"/>
<path d="M3.87275 30.6307V41.199H5.28491C7.66704 41.199 9.48574 40.7134 10.741 39.7421C12.0105 38.7708 12.6453 37.3679 12.6453 35.5333C12.6453 33.267 11.6111 31.6945 9.54279 30.8157C8.58709 30.4149 7.60285 30.2144 6.59009 30.2144C5.59159 30.2144 4.68581 30.3532 3.87275 30.6307ZM15.0417 50.5648C15.0417 46.4793 11.7466 44.4366 5.15653 44.4366H3.87275V56.3462C4.64302 56.6237 5.62725 56.7624 6.82545 56.7624C9.50713 56.7624 11.5469 56.2306 12.9448 55.1668C14.3427 54.0876 15.0417 52.5536 15.0417 50.5648ZM17.3739 55.6062C15.3198 58.5354 11.7538 60 6.67568 60C4.16516 60 1.93994 59.761 0 59.2831V27.8556C2.36787 27.2852 4.82132 27 7.36036 27C9.8994 27 12.0961 27.6706 13.9504 29.0119C15.8191 30.3532 16.7534 32.1107 16.7534 34.2845C16.7534 36.4583 16.2613 38.2081 15.277 39.534C14.2928 40.8598 13.0304 41.7463 11.4899 42.1934C15.2414 42.733 17.5878 44.3826 18.5293 47.1423C18.8431 48.0056 19 48.9692 19 50.0329C19 52.2221 18.458 54.0799 17.3739 55.6062Z" fill="#303F4A"/>
<path d="M153.985 35.4467L128.516 10.4043L120 30L133.933 43.4799L130.718 62.2023L153.985 35.4467Z" fill="url(#paint0_linear_41_220)"/>
<path d="M136.306 0L136.46 23.5208L130.41 32.829L128.437 33.4265L122.338 11.1991L136.306 0Z" fill="url(#paint1_linear_41_220)"/>
<path d="M131.823 63.9283L135.207 59.2283L139.689 59.2211L139.484 63.9889L131.823 63.9283Z" fill="url(#paint2_linear_41_220)"/>
</g>
<defs>
<linearGradient id="paint0_linear_41_220" x1="138.737" y1="11.0418" x2="135.528" y2="62.5022" gradientUnits="userSpaceOnUse">
<stop stop-color="#FE31DA"/>
<stop offset="1" stop-color="#834EFF"/>
</linearGradient>
<linearGradient id="paint1_linear_41_220" x1="137.115" y1="16.4801" x2="122.633" y2="17.1918" gradientUnits="userSpaceOnUse">
<stop stop-color="#FE31DA"/>
<stop offset="1" stop-color="#834EFF"/>
</linearGradient>
<linearGradient id="paint2_linear_41_220" x1="133.929" y1="60.4642" x2="139.549" y2="63.8811" gradientUnits="userSpaceOnUse">
<stop stop-color="#FE31DA"/>
<stop offset="1" stop-color="#834EFF"/>
</linearGradient>
<clipPath id="clip0_41_220">
<rect width="154" height="68" fill="white"/>
</clipPath>
</defs>
</svg>
